# xmcd CD database file
#
# Track frame offsets:
#	150
#	10417
#	25982
#	44045
#	58102
#	77515
#	89832
#	102485
#	114562
#	133122
#	147652
#	175995
#	191465
#	206780
#	227815
#	248080
#
# Disc length: 3465 seconds
#
# Revision: 0
# Processed by: cddbd v1.5PL3 Copyright (c) Steve Scherf et al.
# Submitted via: CDex 1.51
#
DISCID=f00d8710
DTITLE=Latcho Drom - La Verdine
DYEAR=1997
DGENRE=Jazz
TTITLE0=Blanca
TTITLE1=Night in Tunisia
TTITLE2=La Verdine
TTITLE3=Moose the Stuff
TTITLE4=Troublant Bolero
TTITLE5=Blues for Lili
TTITLE6=Merci Mr O.P
TTITLE7=Rythme Futur
TTITLE8=I Can't Give you Anything but Love
TTITLE9=Balajo
TTITLE10=Natalina
TTITLE11=La Poule
TTITLE12=Todo Modo
TTITLE13=Manoir de mes Rêves
TTITLE14=Mademoiselle de Bucarest
TTITLE15=Babo
EXTD=YEAR: 1997
EXTT0=
EXTT1=
EXTT2=
EXTT3=
EXTT4=
EXTT5=
EXTT6=
EXTT7=
EXTT8=
EXTT9=
EXTT10=
EXTT11=
EXTT12=
EXTT13=
EXTT14=
EXTT15=
PLAYORDER=
